<svg xmlns="http://www.w3.org/2000/svg" width="64.682" height="45.903" viewBox="0 0 64.682 45.903">
  <path id="Path_8338" data-name="Path 8338" d="M71.638,114.427H70.6v-8.346a4.178,4.178,0,0,0-4.173-4.173V84.173A4.178,4.178,0,0,0,62.249,80H18.433a4.178,4.178,0,0,0-4.173,4.173v17.735a4.178,4.178,0,0,0-4.173,4.173v8.346H9.043A1.043,1.043,0,0,0,8,115.471v4.173a1.043,1.043,0,0,0,1.043,1.043h1.043v4.173A1.043,1.043,0,0,0,11.13,125.9h3.13a1.042,1.042,0,0,0,1.022-.839l.876-4.378H64.523l.876,4.378a1.042,1.042,0,0,0,1.022.839h3.13A1.043,1.043,0,0,0,70.6,124.86v-4.173h1.043a1.043,1.043,0,0,0,1.043-1.043v-4.173A1.043,1.043,0,0,0,71.638,114.427ZM16.346,84.173a2.089,2.089,0,0,1,2.087-2.087H62.249a2.089,2.089,0,0,1,2.087,2.087v17.735H62.249V97.735a4.178,4.178,0,0,0-4.173-4.173H45.557a4.178,4.178,0,0,0-4.173,4.173v4.173H39.3V97.735a4.178,4.178,0,0,0-4.173-4.173H22.606a4.178,4.178,0,0,0-4.173,4.173v4.173H16.346ZM60.163,97.735v4.173H43.471V97.735a2.089,2.089,0,0,1,2.087-2.087H58.076A2.089,2.089,0,0,1,60.163,97.735Zm-22.952,0v4.173H20.519V97.735a2.089,2.089,0,0,1,2.087-2.087H35.125A2.089,2.089,0,0,1,37.211,97.735Zm-25.038,8.346a2.089,2.089,0,0,1,2.087-2.086H66.422a2.089,2.089,0,0,1,2.087,2.086v8.346H12.173ZM13.4,123.817H12.173v-3.13H14.03Zm55.1,0H67.278l-.626-3.13h1.857ZM70.6,118.6H10.087v-2.087H70.6Z" transform="translate(-8 -80)" fill="#163045"/>
</svg>
