<svg xmlns="http://www.w3.org/2000/svg" width="63.803" height="67.284" viewBox="0 0 63.99 64"><defs><style>.cls-1{fill:#163045;}</style></defs><title>Corona Check</title><g id="Layer_3" data-name="Layer 3"><path class="cls-1" d="M18.27,0h-13C.27,0,0,4.75,0,5.19H0v13a2,2,0,0,0,4,0v-13A1.22,1.22,0,0,1,5.28,4h13a2,2,0,0,0,0-4Z" transform="translate(0)"/><path class="cls-1" d="M45.71,0h13C63.71,0,64,4.75,64,5.19h0v13a2,2,0,0,1-4,0v-13A1.22,1.22,0,0,0,58.7,4h-13a2,2,0,0,1,0-4Z" transform="translate(0)"/><path class="cls-1" d="M18.28,64h-13C.28,64,0,59.25,0,58.81H0v-13a2,2,0,0,1,4,0v13A1.22,1.22,0,0,0,5.29,60h13a2,2,0,0,1,0,4Z" transform="translate(0)"/><path class="cls-1" d="M45.72,64h13c5,0,5.25-4.75,5.27-5.19h0v-13a2,2,0,0,0-4,0v13A1.22,1.22,0,0,1,58.71,60h-13a2,2,0,0,0,0,4Z" transform="translate(0)"/><rect class="cls-1" x="23.24" y="23.23" width="3.4" height="3.4" rx="0.73"/><rect class="cls-1" x="23.25" y="37.36" width="3.4" height="3.4" rx="0.73"/><path class="cls-1" d="M52.47,28.75a1,1,0,0,0,.11-.47V12.58a1.16,1.16,0,0,0-1.16-1.16H12.47a1.16,1.16,0,0,0-1.15,1.16v15.7a1,1,0,0,0,.11.47,3.24,3.24,0,0,1,.12,6.47,1.1,1.1,0,0,0-.23.66v15.7a1.17,1.17,0,0,0,1.15,1.16h39a1.17,1.17,0,0,0,1.16-1.16V35.88a1.11,1.11,0,0,0-.24-.66,3.24,3.24,0,0,1,.13-6.47ZM19.38,20.22a.8.8,0,0,1,.8-.79h9.46a.79.79,0,0,1,.79.79v9.46a.79.79,0,0,1-.79.8H20.18a.8.8,0,0,1-.8-.8ZM30.44,43.81a.8.8,0,0,1-.8.8H20.18a.8.8,0,0,1-.8-.8V34.35a.79.79,0,0,1,.8-.79h9.46a.79.79,0,0,1,.8.79Zm14.1-7.34a.79.79,0,0,1-.79.79H40.88v3.66h2.87a.79.79,0,0,1,.79.79v2.08a.8.8,0,0,1-.79.79H41.66a.79.79,0,0,1-.78-.79V40.92H37.22v2.87a.8.8,0,0,1-.79.79H34.35a.79.79,0,0,1-.79-.79V41.71a.79.79,0,0,1,.79-.79h2.87V37.26H34.35a.79.79,0,0,1-.79-.79V34.39a.79.79,0,0,1,.79-.79h2.08a.8.8,0,0,1,.79.79v2.87h3.66V34.39a.79.79,0,0,1,.78-.79h2.09a.8.8,0,0,1,.79.79Zm0-6.79a.8.8,0,0,1-.79.8H34.32a.8.8,0,0,1-.8-.8V20.22a.8.8,0,0,1,.8-.79h9.46a.8.8,0,0,1,.79.79Z" transform="translate(0)"/><rect class="cls-1" x="37.38" y="23.23" width="3.4" height="3.4" rx="0.73"/></g></svg>