<svg id="Layer_5" data-name="Layer 5" xmlns="http://www.w3.org/2000/svg" width="64" height="64" viewBox="0 0 64 64">
  <path id="Path_12888" data-name="Path 12888" d="M65.446,55.9l-2.652-1.238a13.3,13.3,0,0,0,3.012-8.466V35.871a13.419,13.419,0,1,0-26.839,0v3.747L32.932,36.8a2.074,2.074,0,0,1-1.19-1.87V33.649a13.885,13.885,0,0,0,3.366-3.971h1.8a4.126,4.126,0,0,0,2.933-7.031A5.136,5.136,0,0,0,37.9,14.623a5.168,5.168,0,0,0-5.126-4.558,4.891,4.891,0,0,0-.973.1,5.135,5.135,0,0,0-8.376,0,4.891,4.891,0,0,0-.973-.1,5.168,5.168,0,0,0-5.126,4.558,5.137,5.137,0,0,0-1.935,8.025,4.125,4.125,0,0,0,2.933,7.03h1.8a13.888,13.888,0,0,0,3.366,3.971v1.283a2.073,2.073,0,0,1-1.191,1.87l-7.739,3.611A11.4,11.4,0,0,0,8,50.7v5.814H38.194a11.4,11.4,0,0,0-5.419,9.67V72H72V66.186A11.4,11.4,0,0,0,65.446,55.9Zm-4.6-2.147-3.139-1.465a2.071,2.071,0,0,1-1.19-1.869V49.132a13.885,13.885,0,0,0,3.366-3.971h1.8a4.087,4.087,0,0,0,2.065-.574v1.606A11.253,11.253,0,0,1,60.845,53.75ZM21.779,50.635l1.862-1.241,1.545,5.058H24.068Zm1.064-3.852-2.628-1.314-1.432-4.753,1.931-.9ZM24.608,45.5l3-3L30.619,45.5l-2.738,8.954h-.537Zm9.9-5.679,1.93.9-1.432,4.753-2.628,1.313Zm-2.927,9.577,1.862,1.241-2.29,3.816H30.04Zm2.209-1.009,2.937-1.469,1.6-5.318.635.3v4.3a13.3,13.3,0,0,0,2.855,8.258H33.565l2.664-4.442Zm9.324-9.418A13.606,13.606,0,0,0,43.94,43.1H43.1a2.065,2.065,0,1,1,0-4.129ZM55.484,36.9h4.129v1.5a11.754,11.754,0,0,1-7.226,10.807,11.751,11.751,0,0,1-7.226-10.807V34.582A6.308,6.308,0,0,0,50.056,36.9Zm6.172,2.065h.022a2.065,2.065,0,1,1,0,4.129h-.843A13.668,13.668,0,0,0,61.656,38.968ZM55,52.445l-2.612,2.612-2.612-2.612a4.117,4.117,0,0,0,.541-1.943,13.584,13.584,0,0,0,1.708.788l.362.135.363-.136a13.652,13.652,0,0,0,1.708-.788A4.1,4.1,0,0,0,55,52.445Zm-11.07,1.3a11.249,11.249,0,0,1-2.9-7.556V44.587a4.087,4.087,0,0,0,2.065.574h1.8a13.888,13.888,0,0,0,3.366,3.971v1.283a2.073,2.073,0,0,1-1.191,1.87Zm8.458-29.234A11.368,11.368,0,0,1,63.742,35.871v1.606a4.087,4.087,0,0,0-2.065-.574V34.839H60.645a4.25,4.25,0,0,1-4.13-3.228l-.031-.123-2,.508.029.119a6.325,6.325,0,0,0,1.455,2.724h-.484a4.25,4.25,0,0,1-4.13-3.228l-.031-.123-2,.508.029.119a6.3,6.3,0,0,0,1.46,2.724h-.755a4.25,4.25,0,0,1-3.542-1.9l-.8-1.2H43.1V36.9a4.087,4.087,0,0,0-2.065.574V35.871A11.368,11.368,0,0,1,52.387,24.516ZM32.623,38.936,31.3,43.262l-2.293-2.293,2.3-2.762a4.066,4.066,0,0,0,.749.466ZM36.9,27.613H36.06a13.669,13.669,0,0,0,.822-4.129H36.9a2.065,2.065,0,1,1,0,4.129ZM18.592,16.366l.811-.206-.035-.838a.315.315,0,0,0-.012-.1s0,0,0,0a3.071,3.071,0,0,1,4.187-2.886l.883.333.411-.85a3.072,3.072,0,0,1,5.555,0l.411.85.883-.333a3.071,3.071,0,0,1,4.191,2.811l-.034,1.014.795.2a3.063,3.063,0,0,1,1.356,5.217,4.079,4.079,0,0,0-1.088-.164V19.355H31.2A18.6,18.6,0,0,1,22.914,17.4l-.537-.268-4.055,2.7v1.585a4.078,4.078,0,0,0-1.088.164,3.063,3.063,0,0,1,1.357-5.217Zm-.269,11.246a2.065,2.065,0,1,1,0-4.129h.022a13.606,13.606,0,0,0,.822,4.129Zm2.065-4.691V20.939l2.147-1.432A20.7,20.7,0,0,0,31.2,21.419h3.642v1.5a11.754,11.754,0,0,1-7.226,10.807A11.753,11.753,0,0,1,20.387,22.922ZM27.25,35.806l.363.135.363-.136a13.652,13.652,0,0,0,1.708-.788,4.107,4.107,0,0,0,.328,1.522l-2.4,2.881-2.4-2.88a4.107,4.107,0,0,0,.328-1.522A13.72,13.72,0,0,0,27.25,35.806Zm-4.086,2.867a4.032,4.032,0,0,0,.749-.466l2.3,2.762-2.293,2.293L22.6,38.936ZM10.065,50.7a9.324,9.324,0,0,1,5.362-8.418l1.467-.684,1.6,5.318,2.937,1.469L19,50.011l2.664,4.441h-5.4V48.258H14.194v6.194H10.065Zm44.25,19.233H41.032V63.742H38.968v6.194H34.839V66.186A9.324,9.324,0,0,1,40.2,57.768l8.058-4.019,4.129,3.71,4.129-3.71,8.058,4.019a9.325,9.325,0,0,1,5.362,8.418v3.749H65.806V63.742H63.742v6.194H54.314" transform="translate(-8 -8)" fill="#163045"/>
  <path id="Path_12889" data-name="Path 12889" d="M153.032,296h0a1.032,1.032,0,0,1,1.032,1.032h0a1.032,1.032,0,0,1-1.032,1.032h0A1.032,1.032,0,0,1,152,297.032h0A1.032,1.032,0,0,1,153.032,296Z" transform="translate(-133.419 -258.839)" fill="#163045"/>
  <path id="Path_12890" data-name="Path 12890" d="M345.032,390.766h0a1.032,1.032,0,0,1,1.032,1.032h0a1.032,1.032,0,0,1-1.032,1.032h0A1.032,1.032,0,0,1,344,391.8h0A1.032,1.032,0,0,1,345.032,390.766Z" transform="translate(-300.645 -341.377)" fill="#163045"/>
  <path id="Path_12891" data-name="Path 12891" d="M153.032,328h0a1.032,1.032,0,0,1,1.032,1.032h0a1.032,1.032,0,0,1-1.032,1.032h0A1.032,1.032,0,0,1,152,329.032h0A1.032,1.032,0,0,1,153.032,328Z" transform="translate(-133.419 -286.71)" fill="#163045"/>
</svg>
