<svg xmlns="http://www.w3.org/2000/svg" width="44.521" height="63.601" viewBox="0 0 44.521 63.601">
  <g id="Group_13" data-name="Group 13" transform="translate(-71.999)">
    <path id="Path_8334" data-name="Path 8334" d="M141.781,66.873h2.12V61.52a14.84,14.84,0,1,0-2.12,0Zm-11.66-20.139a12.72,12.72,0,1,1,12.72,12.719A12.72,12.72,0,0,1,130.121,46.734Z" transform="translate(-48.582 -27.655)" fill="#163045"/>
    <path id="Path_8335" data-name="Path 8335" d="M172.189,113.672l8.379-9.216A5.056,5.056,0,0,0,176.828,96h-.245a5.078,5.078,0,0,0-4.044,2.023l-1.134,1.51-1.133-1.51A5.078,5.078,0,0,0,166.228,96h-.245a5.056,5.056,0,0,0-3.741,8.456l8.374,9.216a1.059,1.059,0,0,0,1.568,0Zm-8.373-10.643a2.935,2.935,0,0,1,2.167-4.91h.245a2.95,2.95,0,0,1,2.349,1.174l1.98,2.642a1.1,1.1,0,0,0,1.7,0l1.981-2.642a2.951,2.951,0,0,1,2.349-1.174h.245a2.935,2.935,0,0,1,2.172,4.91l-7.595,8.354Z" transform="translate(-77.145 -83.28)" fill="#163045"/>
    <path id="Path_8336" data-name="Path 8336" d="M77.361,47.344l-5.3,14.84a1.06,1.06,0,0,0,1,1.416h42.4a1.06,1.06,0,0,0,1-1.416l-5.3-14.84a1.059,1.059,0,0,0-1-.7h-9.252L109.864,34.2A23.914,23.914,0,0,0,114.4,20.14a20.14,20.14,0,1,0-40.28,0A23.914,23.914,0,0,0,78.655,34.2L87.611,46.64H78.359A1.06,1.06,0,0,0,77.361,47.344ZM89.122,61.48H74.563l1.514-4.24H89.828ZM112.43,57.21l1.525,4.271H99.4l-.707-4.24h13.589A.991.991,0,0,0,112.43,57.21Zm-.746-2.09H97.439a1.06,1.06,0,0,0-1.06,1.06.921.921,0,0,0,.035.171h-.02l.848,5.125H91.271l.848-5.125a1.06,1.06,0,0,0-1.04-1.231H76.835L77.592,53h14.6L93.4,54.679a1.06,1.06,0,0,0,1.721,0L96.329,53h14.6Zm-2.266-6.36.758,2.12H97.855l1.526-2.12ZM80.373,32.966A21.814,21.814,0,0,1,76.239,20.14a18.02,18.02,0,1,1,36.04,0,21.807,21.807,0,0,1-4.134,12.826L95.319,50.774V45.58H93.2v5.194ZM89.137,48.76l1.526,2.12H78.349l.758-2.12Z" transform="translate(0)" fill="#163045"/>
    <path id="Path_8337" data-name="Path 8337" d="M232,312h2.12v2.12H232Z" transform="translate(-138.801 -270.659)" fill="#163045"/>
  </g>
</svg>
