<svg xmlns="http://www.w3.org/2000/svg" width="64.341" height="64.006" viewBox="0 0 64.341 64.006">
  <g id="Group_14" data-name="Group 14" transform="translate(0 -1.001)">
    <path id="Path_8340" data-name="Path 8340" d="M320.43,283.638a3.1,3.1,0,0,0-2.207-.914h-.293a3.122,3.122,0,0,0-2.208,5.329l5.046,5.046a1.192,1.192,0,0,0,1.685,0l4.9-4.9a3.12,3.12,0,0,0,.486-3.785l-.082-.142a3.136,3.136,0,0,0-2.7-1.549h-.476a3.1,3.1,0,0,0-2.207.915l-.976.974Zm3.637,1.686a.74.74,0,0,1,.522-.217h.476a.741.741,0,0,1,.639.366l.082.141a.738.738,0,0,1-.119.9l-4.056,4.062-4.2-4.2a.739.739,0,0,1,.523-1.261h.293a.743.743,0,0,1,.523.217l1.817,1.817a1.192,1.192,0,0,0,1.685,0Z" transform="translate(-267.922 -239.759)" fill="#163045"/>
    <path id="Path_8341" data-name="Path 8341" d="M1.192,30.454H4.766V63.816a1.192,1.192,0,0,0,1.192,1.192H58.384a1.192,1.192,0,0,0,1.192-1.192V59.05H63.15a1.192,1.192,0,0,0,1.192-1.192V38.794a1.191,1.191,0,0,0-.659-1.072l-4.107-2.047V30.454H63.15a1.192,1.192,0,0,0,1.192-1.192V19.73a5.964,5.964,0,0,0-5.958-5.958H44.645A33.694,33.694,0,0,0,48.4,12.016l5.785-3.155a1.192,1.192,0,1,0-1.141-2.092L47.262,9.924c-.764.417-1.549.789-2.342,1.139.017-.024.039-.044.058-.069a6.248,6.248,0,1,0-10.3-7.06l-.994,1.591A17.738,17.738,0,0,0,32.171,8.58a17.737,17.737,0,0,0-1.516-3.055l-.994-1.591a6.248,6.248,0,1,0-10.3,7.06c.019.025.041.045.058.069-.794-.35-1.578-.722-2.342-1.139L11.294,6.769a1.192,1.192,0,1,0-1.141,2.092l5.785,3.155A33.694,33.694,0,0,0,19.7,13.772H5.958A5.964,5.964,0,0,0,0,19.73v9.532A1.192,1.192,0,0,0,1.192,30.454ZM28.6,62.624H7.149V30.454H28.6Zm28.6,0H35.745V30.454H52.426v2.838l-8.873,4.43a1.191,1.191,0,0,0-.659,1.072V57.858a1.192,1.192,0,0,0,1.192,1.192H57.192Zm4.766-23.094V56.667H45.277V39.531l8.341-4.17Zm-7.149-6.239V30.454h2.383v4.03Zm3.575-17.136a3.575,3.575,0,0,1,3.575,3.575v8.341H35.745V16.155ZM35.707,6.788,36.7,5.193a3.865,3.865,0,1,1,6.37,4.368,10.544,10.544,0,0,1-5.179,3.681,31.494,31.494,0,0,1-4.477.49A15.415,15.415,0,0,1,35.707,6.788Zm-4.728,9.367h2.383V28.071H30.979Zm0,14.3h2.383V62.624H30.979ZM20.6,6.358a3.863,3.863,0,0,1,7.043-1.164l.995,1.592a15.409,15.409,0,0,1,2.293,6.945,31.541,31.541,0,0,1-4.478-.49,10.55,10.55,0,0,1-5.181-3.679A3.849,3.849,0,0,1,20.6,6.358ZM2.383,19.73a3.575,3.575,0,0,1,3.575-3.575H28.6V28.071H2.383Z" transform="translate(0 0)" fill="#163045"/>
    <path id="Path_8342" data-name="Path 8342" d="M64,230.75h2.383v2.383H64Z" transform="translate(-54.468 -195.53)" fill="#163045"/>
    <path id="Path_8343" data-name="Path 8343" d="M112,230.75h2.383v2.383H112Z" transform="translate(-95.319 -195.53)" fill="#163045"/>
    <path id="Path_8344" data-name="Path 8344" d="M160,230.75h2.383v2.383H160Z" transform="translate(-136.17 -195.53)" fill="#163045"/>
    <path id="Path_8345" data-name="Path 8345" d="M256,230.75h2.383v2.383H256Z" transform="translate(-217.872 -195.53)" fill="#163045"/>
    <path id="Path_8346" data-name="Path 8346" d="M64,278.75h2.383v2.383H64Z" transform="translate(-54.468 -236.381)" fill="#163045"/>
    <path id="Path_8347" data-name="Path 8347" d="M112,278.75h2.383v2.383H112Z" transform="translate(-95.319 -236.381)" fill="#163045"/>
    <path id="Path_8348" data-name="Path 8348" d="M160,278.75h2.383v2.383H160Z" transform="translate(-136.17 -236.381)" fill="#163045"/>
    <path id="Path_8349" data-name="Path 8349" d="M256,278.75h2.383v2.383H256Z" transform="translate(-217.872 -236.381)" fill="#163045"/>
    <path id="Path_8350" data-name="Path 8350" d="M64,326.75h2.383v2.383H64Z" transform="translate(-54.468 -277.232)" fill="#163045"/>
    <path id="Path_8351" data-name="Path 8351" d="M112,326.75h2.383v2.383H112Z" transform="translate(-95.319 -277.232)" fill="#163045"/>
    <path id="Path_8352" data-name="Path 8352" d="M160,326.75h2.383v2.383H160Z" transform="translate(-136.17 -277.232)" fill="#163045"/>
    <path id="Path_8353" data-name="Path 8353" d="M256,326.75h2.383v2.383H256Z" transform="translate(-217.872 -277.232)" fill="#163045"/>
    <path id="Path_8354" data-name="Path 8354" d="M64,374.75h2.383v2.383H64Z" transform="translate(-54.468 -318.083)" fill="#163045"/>
    <path id="Path_8355" data-name="Path 8355" d="M112,374.75h2.383v2.383H112Z" transform="translate(-95.319 -318.083)" fill="#163045"/>
    <path id="Path_8356" data-name="Path 8356" d="M160,374.75h2.383v2.383H160Z" transform="translate(-136.17 -318.083)" fill="#163045"/>
    <path id="Path_8357" data-name="Path 8357" d="M256,374.75h2.383v2.383H256Z" transform="translate(-217.872 -318.083)" fill="#163045"/>
  </g>
</svg>
