<svg xmlns="http://www.w3.org/2000/svg" width="62.4" height="64.329" viewBox="0 0 62.4 64.329">
  <g id="outline" transform="translate(-30.395 -16)">
    <path id="Path_8358" data-name="Path 8358" d="M92.222,26.845,71.851,16.123a1.073,1.073,0,0,0-.5-.123H62.507a4.025,4.025,0,0,0-4.021,4.021v4.557a1.072,1.072,0,0,0,1.072,1.072v3.216a1.072,1.072,0,0,0,1.072,1.072V42.8a5.36,5.36,0,0,0-3.216,1.074,5.359,5.359,0,0,0-8.231,2.392l-.992-.11L37.713,37.776a1.072,1.072,0,0,0-1.687.5L30.458,54.514a1.072,1.072,0,0,0,.353,1.212l5.714,4.416a10.044,10.044,0,0,0,6.673,5.24l7.282,5.645a3.331,3.331,0,0,0,5.248-1.591l3.322,2.658a3.331,3.331,0,0,0,5.315-1.8,3.314,3.314,0,0,0,3.25-.727,4.289,4.289,0,0,0,7.8-3.465,6.436,6.436,0,0,0,1.247-11.741,7.431,7.431,0,0,0,.047-.833,7.518,7.518,0,0,0-5.361-7.191v-16.4a1.072,1.072,0,0,0,1.072-1.072V26.437L91.186,37.3a1.072,1.072,0,0,0,1.609-.928V27.794A1.072,1.072,0,0,0,92.222,26.845Zm-21.942-1.2v2.144H61.7V25.649ZM37.574,40.411l9.521,7.617a1.073,1.073,0,0,0,.551.228l7.773.864a3.742,3.742,0,0,1,2.421,1.272l11.265,13a1.283,1.283,0,0,1-1.877,1.748l-.048-.045-8.865-7.814-2.05-5.125a1.072,1.072,0,1,0-1.991.8l2.144,5.361.006.013a1.067,1.067,0,0,0,.278.392l3.931,3.48a1.527,1.527,0,0,1-.226,1.928,1.467,1.467,0,0,1-1.94.121l-5.709-4.995a1.073,1.073,0,0,0-.7-.265,5.941,5.941,0,0,1-5.284-3.239,1.065,1.065,0,0,0-.367-.419l-11.3-7.5Zm24.4,29.92a1.187,1.187,0,0,1-1.583.088l-6.241-4.993h0L47.369,60a1.072,1.072,0,1,0-1.34,1.674h0L53.3,67.492a1.188,1.188,0,1,1-1.485,1.856l-.013-.01-7.493-5.808a1.065,1.065,0,0,0-.537-.217,7.883,7.883,0,0,1-5.421-4.322,1.073,1.073,0,0,0-.314-.392l-5.294-4.092,1.65-4.582,10.595,7.036a8.111,8.111,0,0,0,6.652,4.157l5.438,4.758.036.03a3.6,3.6,0,0,0,2.257.793c.073,0,.145,0,.218-.007l2.288,1.872a1.187,1.187,0,0,1,.1,1.768Zm2.647-2.288-1.132-.91a3.259,3.259,0,0,0-.265-.237l-1.409-1.153c.037-.034.074-.068.11-.1a3.716,3.716,0,0,0,.915-1.521l2.9,2.561a3.415,3.415,0,0,0,.8.583,1.187,1.187,0,0,1-1.918.78Zm9.948-14.518a5.394,5.394,0,0,1-.139,1.21,1.072,1.072,0,0,0,.649,1.237,4.289,4.289,0,0,1-1.384,8.269,1.072,1.072,0,0,0-.748,1.788,2.144,2.144,0,1,1-3.738,1.455,3.4,3.4,0,0,0,1.351-.83,3.44,3.44,0,0,0,.166-4.669l-11.265-13a5.879,5.879,0,0,0-3.8-2l-4.221-.469a3.213,3.213,0,0,1,5.175-.481,1.072,1.072,0,0,0,1.608,0,3.216,3.216,0,0,1,5.629,2.126,3.26,3.26,0,0,1-.033.456,1.072,1.072,0,0,0,1.784.942,5.361,5.361,0,0,1,8.97,3.963ZM69.207,46.02a7.515,7.515,0,0,0-2.144.312V42.8a1.072,1.072,0,1,0-2.144,0v2.15a5.39,5.39,0,0,0-2.144-1.7V29.938h2.144v3.216a1.072,1.072,0,0,0,2.144,0V29.938h2.144ZM90.651,34.511,71.889,23.649a1.072,1.072,0,0,0-.537-.144H60.63V20.021a1.878,1.878,0,0,1,1.876-1.876h8.58l19.564,10.3Z" transform="translate(0)" fill="#163045"/>
    <path id="Path_8359" data-name="Path 8359" d="M289.072,168A1.072,1.072,0,0,0,288,169.072v1.072a1.072,1.072,0,0,0,2.144,0v-1.072A1.072,1.072,0,0,0,289.072,168Z" transform="translate(-223.081 -131.629)" fill="#163045"/>
    <path id="Path_8360" data-name="Path 8360" d="M171.216,158.433A3.216,3.216,0,1,0,168,155.216,3.216,3.216,0,0,0,171.216,158.433Zm0-4.289a1.072,1.072,0,1,1-1.072,1.072A1.072,1.072,0,0,1,171.216,154.144Z" transform="translate(-119.163 -117.773)" fill="#163045"/>
    <path id="Path_8361" data-name="Path 8361" d="M219.216,448a3.216,3.216,0,1,0,3.216,3.216A3.216,3.216,0,0,0,219.216,448Zm0,4.289a1.072,1.072,0,1,1,1.072-1.072A1.072,1.072,0,0,1,219.216,452.289Z" transform="translate(-160.731 -374.104)" fill="#163045"/>
    <path id="Path_8362" data-name="Path 8362" d="M387.216,384a3.216,3.216,0,1,0,3.216,3.216A3.216,3.216,0,0,0,387.216,384Zm0,4.289a1.072,1.072,0,1,1,1.072-1.072A1.072,1.072,0,0,1,387.216,388.289Z" transform="translate(-306.215 -318.681)" fill="#163045"/>
    <path id="Path_8363" data-name="Path 8363" d="M107.753,416a3.753,3.753,0,1,0,3.753,3.753A3.753,3.753,0,0,0,107.753,416Zm0,5.361a1.608,1.608,0,1,1,1.608-1.608h0A1.61,1.61,0,0,1,107.753,421.361Z" transform="translate(-63.741 -346.392)" fill="#163045"/>
    <path id="Path_8364" data-name="Path 8364" d="M371.753,216a3.753,3.753,0,1,0,3.753,3.753A3.753,3.753,0,0,0,371.753,216Zm0,5.361a1.608,1.608,0,1,1,1.608-1.608h0A1.61,1.61,0,0,1,371.753,221.361Z" transform="translate(-292.36 -173.196)" fill="#163045"/>
  </g>
</svg>
